<?xml version="1.0" encoding="UTF-8"?>
<svg id="houses" xmlns="http://www.w3.org/2000/svg" viewBox="0 0 7967.36 6847.15">
  <polyline points="5487.47 2175.55 5499.68 2175.55 5499.68 2138.56 5557.92 2138.56 5557.92 2277.16 5504.85 2277.16 5504.85 2227.07 5487.47 2227.07 5487.47 2175.55"/>
  <polygon points="5496.39 2352.71 5496.39 2377.72 5471.03 2377.72 5471.03 2398.56 5529.27 2398.56 5529.27 2352.71 5496.39 2352.71"/>
  <polygon points="5685.21 2300.81 5708.69 2300.81 5708.69 2326.99 5740.63 2326.99 5740.63 2362.16 5685.21 2362.16 5685.21 2300.81"/>
  <polygon points="6049.17 2319.17 6107.99 2319.17 6107.99 2355.51 6116.8 2355.51 6116.8 2387.29 6049.17 2387.29 6049.17 2319.17"/>
  <rect x="5572.48" y="2107.29" width="58.24" height="110.46"/>
  <rect x="5703.51" y="2101.56" width="31" height="169.86"/>
  <rect x="5680.72" y="2150.77" width="53.78" height="45.95"/>
  <rect x="5680.72" y="2150.77" width="68.57" height="31.6"/>
  <rect x="5863.11" y="2156.04" width="36.98" height="138.05"/>
  <rect x="5951.6" y="2138.95" width="55.3" height="145.76"/>
  <rect x="6050.93" y="2133.09" width="57.06" height="89.88"/>
  <rect x="6031.62" y="2432.29" width="63.4" height="117.24"/>
  <rect x="6023.64" y="2549.53" width="97.22" height="115.15"/>
  <rect x="5751.18" y="2432.81" width="83.83" height="64.09"/>
  <rect x="5731.77" y="2503.83" width="51.07" height="133.04"/>
  <rect x="5627.89" y="2419.92" width="39.45" height="130.13"/>
  <rect x="5483.24" y="2428.12" width="74.67" height="87.93"/>
  <rect x="5493.1" y="2516.05" width="74.67" height="131.44"/>
  <rect x="5492" y="1498.58" width="64.11" height="102.57"/>
  <rect x="5553.77" y="1372.16" width="64.11" height="102.57"/>
  <rect x="5492" y="1346.15" width="168.37" height="89.19"/>
  <rect x="5687.13" y="1372.16" width="131.74" height="193.26"/>
  <rect x="5961.3" y="1435.34" width="44.25" height="94.4"/>
  <rect x="6002.9" y="1516.07" width="92.29" height="57.23"/>
  <rect x="5472.8" y="1835.43" width="87.7" height="81.02"/>
  <rect x="5576.18" y="1657.57" width="66.34" height="108.13"/>
  <rect x="5852.45" y="1738.57" width="66.54" height="123.72"/>
  <rect x="5949.55" y="1937.09" width="35.93" height="30.8"/>
  <polygon points="5956.24 1664.24 5956.24 1706.12 5998.04 1706.12 5998.04 1724.2 6037.02 1724.2 6037.02 1664.24 5956.24 1664.24"/>
  <polygon points="5977.85 1738.57 6027.63 1738.57 6027.63 1932.32 5949.55 1932.32 5949.55 1762.85 5977.85 1762.85 5977.85 1738.57"/>
  <rect x="6048.76" y="1667.22" width="79.37" height="143.21"/>
  <polygon points="6048.76 1925.39 6048.76 1810.42 6128.13 1810.42 6128.13 1842.63 6145.51 1842.63 6145.51 1925.39 6048.76 1925.39"/>
  <rect x="6048.76" y="1925.39" width="96.75" height="42.51"/>
  <rect x="5701.16" y="2790.08" width="59.18" height="67.17"/>
  <rect x="5520.81" y="2974.8" width="113.42" height="58.44"/>
  <rect x="5568.01" y="3098.41" width="112.01" height="49.04"/>
  <rect x="5540.54" y="3186.4" width="175.41" height="28.88"/>
  <rect x="5553.92" y="3580.04" width="62.7" height="42.77"/>
  <rect x="5605.48" y="3692.53" width="62.7" height="42.77"/>
  <rect x="5911.61" y="3766.34" width="62.7" height="42.77"/>
  <rect x="5648.68" y="3306.46" width="62.7" height="42.77"/>
  <rect x="5696.58" y="3082.06" width="62.7" height="42.77"/>
  <rect x="5825.85" y="2916.43" width="62.7" height="42.77"/>
  <rect x="5684.25" y="3792.99" width="80.31" height="30.9"/>
  <rect x="5538.9" y="3858.14" width="80.31" height="30.9"/>
  <rect x="5895.33" y="3576" width="95.26" height="30.9"/>
  <rect x="5813.87" y="3607.36" width="79.04" height="30.9"/>
  <rect x="6004.08" y="3565.78" width="95.26" height="30.9"/>
  <rect x="5724.41" y="3989.13" width="73.27" height="34.26"/>
  <rect x="5670.87" y="4073.1" width="41.56" height="49.04"/>
  <rect x="5819.51" y="3981.07" width="48.61" height="42.32"/>
  <rect x="5815.28" y="4162.78" width="58.65" height="55.92"/>
  <polygon points="5898.21 4037.72 6060.26 4037.72 6060.26 4059.5 6023.19 4059.5 6023.19 4089.91 5931.82 4089.91 5931.82 4059.5 5898.21 4059.5 5898.21 4037.72"/>
  <polygon points="5901.27 3826.81 5921.94 3826.81 5921.94 3812.48 5978.29 3812.48 5978.29 3829.95 6019.62 3829.95 6019.62 3816.96 6045.92 3816.96 6045.92 3854.13 6057.19 3854.13 6057.19 3888.16 6019.15 3888.16 6019.15 3923.09 5901.27 3923.09 5901.27 3826.81"/>
  <polygon points="5646.21 3895.09 5663.59 3895.09 5663.59 3862.4 5738.73 3862.4 5738.73 3915.69 5646.21 3915.69 5646.21 3895.09"/>
  <polygon points="5845.8 3661.59 5845.8 3675.44 5886.84 3675.44 5886.84 3735.3 5819.95 3735.3 5819.95 3661.59 5845.8 3661.59"/>
  <polygon points="5845.8 3756.13 5845.8 3769.98 5886.84 3769.98 5886.84 3829.84 5819.95 3829.84 5819.95 3756.13 5845.8 3756.13"/>
  <polygon points="5531.62 3748.2 5602.06 3748.2 5602.06 3772.83 5613.33 3772.83 5613.33 3805.53 5531.62 3805.53 5531.62 3748.2"/>
  <polygon points="5531.62 4032.57 5626.48 4032.57 5626.48 4072.6 5611.46 4072.6 5611.46 4122.14 5531.62 4122.14 5531.62 4032.57"/>
  <polygon points="5925.77 3679.97 5925.77 3704.66 6001.9 3704.66 6001.9 3732.32 6044.37 3732.32 6044.37 3650.34 5961.5 3650.34 5961.5 3679.97 5925.77 3679.97"/>
  <polygon points="5540.07 3476.37 5558.86 3476.37 5558.86 3465.18 5647.15 3465.18 5647.15 3529.66 5540.07 3529.66 5540.07 3476.37"/>
  <polygon points="5647.15 3447.26 5528.33 3447.26 5528.33 3370.68 5701.63 3370.68 5701.63 3419.5 5647.15 3419.5 5647.15 3447.26"/>
  <rect x="5819.51" y="2980.85" width="69.04" height="58.44"/>
  <rect x="5857.88" y="3499.94" width="86.78" height="37.78"/>
  <polygon points="5906.86 3043.66 5929.41 3043.66 5929.41 3021.49 6022.4 3021.49 6022.4 3055.75 5928.35 3055.75 5928.35 3068.51 5906.86 3068.51 5906.86 3043.66"/>
  <rect x="5529.97" y="2924.72" width="100.74" height="34.48"/>
  <rect x="5946.78" y="4479.91" width="108.96" height="47.32"/>
  <rect x="5885.73" y="4578.93" width="60.11" height="49.95"/>
  <rect x="5971.21" y="4767.34" width="101.44" height="22.78"/>
  <rect x="5524.1" y="4794.51" width="139.96" height="43.82"/>
  <rect x="5707.26" y="4767.34" width="75.14" height="22.78"/>
  <rect x="5993.75" y="4962.76" width="102.38" height="73.61"/>
  <rect x="5946.78" y="5061.79" width="135.26" height="52.58"/>
  <rect x="5549.46" y="5011.84" width="144.65" height="24.54"/>
  <rect x="5583.28" y="5147.67" width="139.02" height="53.46"/>
  <rect x="5819.04" y="5264.22" width="58.24" height="54.33"/>
  <rect x="5903.58" y="5454.38" width="70.68" height="54.33"/>
  <rect x="5812.82" y="5535.7" width="70.68" height="54.33"/>
  <rect x="5747.63" y="5582.57" width="37.26" height="96.93"/>
  <rect x="5549.46" y="5304.53" width="86.42" height="29.79"/>
  <rect x="5396.26" y="5445.14" width="68.41" height="29.79"/>
  <rect x="5903.58" y="5453.64" width="141.36" height="29.79"/>
  <rect x="5649.03" y="5304.53" width="38.51" height="35.93"/>
  <path d="M5565.9,5088.08c1.17-1.1,76.55,0,76.55,0v8.33h35.22v34.18h-111.78v-42.5Z"/>
  <polygon points="5665.94 5223.47 5713.84 5223.47 5713.84 5246.69 5750.94 5246.69 5750.94 5231.36 5782.41 5231.36 5782.41 5266.85 5665.94 5266.85 5665.94 5223.47"/>
  <polygon points="5923.77 5251.07 6059.03 5251.07 6059.03 5276.92 6028.03 5276.92 6028.03 5291.38 5991.4 5291.38 5991.4 5276.92 5923.77 5276.92 5923.77 5251.07"/>
  <polygon points="5961.34 5154.24 6026.62 5154.24 6026.62 5163.44 6039.77 5163.44 6039.77 5186.66 6050.11 5186.66 6050.11 5210.76 5961.34 5210.76 5961.34 5154.24"/>
  <polygon points="5848.16 5048.64 5923.77 5048.64 5923.77 5087.59 5903.11 5087.59 5903.11 5070.99 5848.16 5070.99 5848.16 5048.64"/>
  <polygon points="5810.59 4676.64 5979.66 4676.64 5979.66 4751.57 5907.8 4751.57 5907.8 4732.73 5892.78 4732.73 5892.78 4715.64 5810.59 4715.64 5810.59 4676.64"/>
  <rect x="5905.46" y="4884.77" width="78.9" height="28.92"/>
  <rect x="4825.44" y="1542.77" width="66.57" height="70.24"/>
  <rect x="4938.15" y="1440.65" width="57.06" height="166.39"/>
  <rect x="5031.66" y="1489.63" width="51.43" height="59.46"/>
  <rect x="5112.45" y="1654.83" width="51.43" height="59.46"/>
  <rect x="5199.47" y="1789.52" width="25.71" height="59.46"/>
  <rect x="5035.62" y="1385.3" width="25.71" height="84.01"/>
  <rect x="4959.7" y="1331.82" width="25.71" height="84.01"/>
  <rect x="5205.2" y="1664.24" width="75.33" height="66.4"/>
  <rect x="5257.82" y="1723.45" width="95.85" height="109.56"/>
  <rect x="5014.13" y="1670.44" width="68.57" height="90.19"/>
  <rect x="4925.47" y="1670.44" width="39.45" height="54.01"/>
  <rect x="4845.35" y="1821.58" width="46.66" height="65.85"/>
  <polygon points="4719.46 1385.3 4806.82 1385.3 4806.82 1421.22 4796.95 1421.22 4796.95 1618.94 4727.92 1618.94 4727.92 1535.69 4742.01 1535.69 4742.01 1500.01 4719.46 1500.01 4719.46 1385.3"/>
  <polygon points="4850.22 1398.18 4850.22 1438.26 4822.53 1438.26 4822.53 1545.44 4905.75 1545.44 4905.75 1398.18 4850.22 1398.18"/>
  <polygon points="5158.65 1411.58 5280.53 1411.58 5280.53 1488.14 5258.69 1488.14 5258.69 1567.67 5158.65 1567.67 5158.65 1411.58"/>
  <polygon points="5280.53 1664.24 5370.7 1664.24 5370.7 1688.28 5384.08 1688.28 5384.08 1780.44 5314.34 1780.44 5314.34 1730.64 5280.53 1730.64 5280.53 1664.24"/>
  <polygon points="4829.2 1674.65 4829.2 1730.64 4892.01 1730.64 4892.01 1703.64 4883.21 1703.64 4883.21 1674.65 4829.2 1674.65"/>
  <polygon points="4937.03 1804.29 4937.03 1844.38 4925.49 1844.38 4925.49 1883.96 4937.03 1883.96 4937.03 1916.44 4981.76 1916.44 4981.76 1883.96 4993.79 1883.96 4993.79 1860.36 4983.69 1860.36 4983.69 1804.29 4937.03 1804.29"/>
  <rect x="4756.32" y="1737.21" width="43.36" height="128.47"/>
  <polygon points="4795.55 4512.36 4960.4 4512.36 4960.4 4583.77 4817.62 4583.77 4817.62 4554.65 4795.55 4554.65 4795.55 4512.36"/>
  <rect x="4773.71" y="5546.39" width="109.9" height="113.05"/>
  <polygon points="5229.74 5335.86 5295.96 5335.86 5295.96 5403.88 5194.16 5403.88 5194.16 5358.86 5229.74 5358.86 5229.74 5335.86"/>
  <polygon points="4792.5 5327.31 5024.03 5327.31 5024.03 5344.73 5040.94 5344.73 5040.94 5372.66 5024.03 5372.66 5024.03 5412.1 4792.5 5412.1 4792.5 5327.31"/>
  <rect x="4885.14" y="5579.47" width="136.07" height="59.59"/>
  <rect x="4791.93" y="4330.92" width="141.83" height="57.12"/>
  <rect x="4803.3" y="4414.14" width="149.35" height="62.22"/>
  <rect x="5063.95" y="4394.03" width="65.75" height="25.63"/>
  <rect x="4784.98" y="4767.34" width="137.14" height="49.07"/>
  <rect x="5089.32" y="4907.55" width="112.72" height="24.43"/>
  <rect x="4768.08" y="5060.03" width="143.71" height="54.33"/>
  <rect x="4773.71" y="5174.39" width="141.83" height="26.73"/>
  <rect x="4792.5" y="5237.05" width="91.11" height="70.98"/>
  <rect x="5063.95" y="5243.84" width="57.3" height="35.82"/>
  <rect x="4792.5" y="5428.97" width="137.14" height="59.59"/>
  <rect x="5181.37" y="5450.87" width="136.2" height="30.67"/>
  <polygon points="5187.94 4390.52 5292.67 4390.52 5292.67 4433.46 5262.15 4433.46 5262.15 4443.1 5187.94 4443.1 5187.94 4390.52"/>
  <polygon points="4806.59 4604.35 4904.74 4604.35 4904.74 4634.14 4916.01 4634.14 4916.01 4660.43 4806.59 4660.43 4806.59 4604.35"/>
  <polygon points="4806.59 4675.77 4903.33 4675.77 4903.33 4689.79 4922.12 4689.79 4922.12 4727.91 4945.6 4727.91 4945.6 4754.2 4806.59 4754.2 4806.59 4675.77"/>
  <polygon points="5112.8 4816.42 5112.8 4848.4 5196.39 4848.4 5196.39 4818.61 5220.82 4818.61 5220.82 4776.54 5137.22 4776.54 5137.22 4816.42 5112.8 4816.42"/>
  <polygon points="4808.94 4861.99 4936.21 4861.99 4936.21 4949.62 4862.01 4949.62 4862.01 4919.77 4808.94 4919.77 4808.94 4861.99"/>
  <path d="M4887.37,4981.6h77.02v-31.99h56.83v65.29h-42.27v31.99h-91.58v-65.29Z"/>
  <polyline points="5274.12 5261.75 5333.3 5261.75 5333.3 5300.04 5317.8 5300.04 5317.8 5307.6 5274.12 5307.6 5274.12 5261.75"/>
  <rect x="5070" y="3173.72" width="138.25" height="28.88"/>
  <rect x="5163.99" y="2795.67" width="168.13" height="54.19"/>
  <rect x="5194.25" y="3075.34" width="93.93" height="46.13"/>
  <rect x="5266.84" y="3124.83" width="55.89" height="34.48"/>
  <rect x="4792.26" y="3169.16" width="55.89" height="34.48"/>
  <rect x="4926.02" y="3276.78" width="100.74" height="34.48"/>
  <rect x="4849.32" y="3364.41" width="147.47" height="33.59"/>
  <rect x="5111.86" y="3587.79" width="125.23" height="35.02"/>
  <rect x="5132.05" y="3655.5" width="77.96" height="55.08"/>
  <rect x="5087.44" y="3907.18" width="52.13" height="29.56"/>
  <rect x="4759.68" y="3366.43" width="74.61" height="29.56"/>
  <rect x="5061.64" y="3482.36" width="45.12" height="27.99"/>
  <rect x="5066.22" y="3363.21" width="35.95" height="35.13" transform="translate(8464.97 -1703.43) rotate(90)"/>
  <rect x="5100.42" y="3466.91" width="49.77" height="37.1" transform="translate(8610.77 -1639.84) rotate(90)"/>
  <rect x="5314.28" y="3323.1" width="52.13" height="23.18"/>
  <rect x="5128.82" y="3514.57" width="82.07" height="29.56"/>
  <rect x="5094.01" y="3950.62" width="45.56" height="43.44"/>
  <rect x="5071.23" y="4087.89" width="42.27" height="35.81"/>
  <rect x="5069.45" y="4063.57" width="31.73" height="19.73"/>
  <rect x="4900.28" y="3946.56" width="31.73" height="19.73"/>
  <rect x="4851.2" y="3976.76" width="31.73" height="28.94"/>
  <rect x="4726.66" y="4058.96" width="53.62" height="28.94"/>
  <rect x="4955.7" y="3946.56" width="31.73" height="19.73"/>
  <rect x="5110.78" y="4041.09" width="33.67" height="44.96" transform="translate(9191.18 -1064.05) rotate(90)"/>
  <rect x="4784.51" y="4036.83" width="150.76" height="65.16"/>
  <rect x="5224.28" y="4136.92" width="90.17" height="51.72"/>
  <polygon points="5159.73 3001.34 5167.13 3001.34 5167.13 2972.12 5187.56 2972.12 5187.56 2997.64 5292.17 2997.64 5292.17 3024.51 5284.78 3024.51 5284.78 3047.35 5159.73 3047.35 5159.73 3001.34"/>
  <polyline points="4792.26 2839.11 4792.26 2864.64 4924.7 2864.64 4924.7 2816.95 4895.82 2816.95 4895.82 2839.11 4792.26 2839.11"/>
  <polygon points="4786.63 2921.4 4809.17 2921.4 4809.17 2933.83 4829.6 2933.83 4829.6 2911.66 4841.93 2911.66 4841.93 2935.17 4879.26 2935.17 4879.26 2912 4933.51 2912 4933.51 2928.12 4958.17 2928.12 4958.17 2958.35 4786.63 2958.35 4786.63 2921.4"/>
  <polygon points="4792.26 3206.61 4792.26 3246.08 4942.43 3246.08 4942.43 3173.72 4855.06 3173.72 4855.06 3206.61 4792.26 3206.61"/>
  <polygon points="5076.3 3272.42 5208.25 3272.42 5208.25 3323.1 5117.02 3323.1 5117.02 3304.05 5076.3 3304.05 5076.3 3272.42"/>
  <polygon points="5260.03 3265 5318.86 3265 5318.86 3346.28 5232.21 3346.28 5232.21 3323.1 5260.03 3323.1 5260.03 3265"/>
  <polyline points="5130.33 3371.53 5327.27 3371.53 5327.27 3402.91 5274.16 3402.91 5274.16 3427.56 5222.93 3427.56 5222.93 3402.91 5130.33 3402.91 5130.33 3369.93"/>
  <polygon points="5223.16 3461.99 5270.71 3461.99 5270.71 3510.35 5247.47 3510.35 5247.47 3486.5 5223.16 3486.5 5223.16 3461.99"/>
  <polygon points="5259.8 3727.16 5333.53 3727.16 5333.53 3805.53 5210.01 3805.53 5210.01 3786.27 5199.68 3786.27 5199.68 3755.37 5259.8 3755.37 5259.8 3727.16"/>
  <polygon points="5223.63 3840.01 5282.81 3840.01 5282.81 3910.76 5210.01 3910.76 5210.01 3878.07 5151.78 3878.07 5151.78 3855.68 5223.63 3855.68 5223.63 3840.01"/>
  <polygon points="5069.12 3710.59 5089.32 3710.59 5089.32 3766.34 5098.71 3766.34 5098.71 3784.03 5069.12 3784.03 5069.12 3710.59"/>
  <polygon points="5012.76 3727.16 5047.05 3727.16 5047.05 3829.71 4982.7 3829.71 4982.7 3755.82 5012.76 3755.82 5012.76 3727.16"/>
  <polygon points="5018.4 3649.47 5018.4 3704.55 4959.22 3704.55 4959.22 3731.87 4782.17 3731.87 4782.17 3649.47 5018.4 3649.47"/>
  <rect x="4929.17" y="3860.16" width="117.88" height="55.53"/>
  <polygon points="5184.18 3972.34 5336.35 3972.34 5336.35 4016 5260.27 4016 5260.27 4000.78 5184.18 4000.78 5184.18 3972.34"/>
  <rect x="4790.62" y="3942.11" width="69.51" height="63.59"/>
  <path d="M4882.2,4133.78c1.17.22,59.18,0,59.18,0v12.99h40.86v73.44h-100.04v-86.43Z"/>
  <polygon points="5313.34 2138.56 5370.16 2138.56 5370.16 2146.89 5386.13 2146.89 5386.13 2246.68 5313.34 2246.68 5313.34 2138.56"/>
  <polygon points="5310.05 2335.52 5365.47 2335.52 5365.47 2354.27 5376.74 2354.27 5376.74 2382.93 5366.41 2382.93 5366.41 2405.86 5330.71 2405.86 5330.71 2396.48 5310.05 2396.48 5310.05 2335.52"/>
  <rect x="4743.65" y="2122.14" width="68.69" height="163.35"/>
  <rect x="4828.9" y="2122.14" width="84.54" height="139.51"/>
  <rect x="4931.04" y="2195.87" width="57.53" height="63.83"/>
  <rect x="4931.04" y="2329.78" width="34.75" height="66.69"/>
  <rect x="5025.44" y="2210.98" width="77.02" height="71.38"/>
  <rect x="5138.16" y="2208.9" width="51.9" height="57.58"/>
  <rect x="5215.65" y="2156.79" width="44.62" height="94.83"/>
  <rect x="5077.1" y="2512.53" width="69.98" height="114.11"/>
  <rect x="5022.63" y="2502.11" width="54.48" height="100.04"/>
  <rect x="4945.6" y="2537.54" width="58.71" height="119.32"/>
  <rect x="4732.73" y="2544.97" width="60.58" height="55.1"/>
  <rect x="4885.96" y="2508.89" width="17.85" height="120.36"/>
  <rect x="4178.13" y="1378.36" width="41.81" height="171.45"/>
  <rect x="4186.75" y="1455.06" width="59.77" height="138.29"/>
  <rect x="4447.63" y="1666.72" width="58.24" height="89.19"/>
  <rect x="4552.15" y="1333.76" width="51.84" height="153.61"/>
  <rect x="4552.15" y="1498.52" width="67.86" height="65.41"/>
  <polyline points="3978.87 1381.51 4055.9 1381.51 4055.9 1548.89 4029.03 1548.89 4029.03 1521.17 3978.87 1521.17 3978.87 1381.51"/>
  <polygon points="4094.1 1367.23 4094.1 1534.64 4120.87 1534.64 4120.87 1498.48 4151.16 1498.48 4151.16 1367.23 4094.1 1367.23"/>
  <polygon points="4283.84 1382.18 4283.84 1497.64 4341.61 1497.64 4341.61 1438.44 4378.94 1438.44 4378.94 1382.18 4283.84 1382.18"/>
  <polygon points="4062.04 1673.41 4062.04 1819.84 4148.69 1819.84 4148.69 1711.32 4101.49 1711.32 4101.49 1673.41 4062.04 1673.41"/>
  <polygon points="4447.63 1816.12 4447.63 1924.64 4505.86 1924.64 4505.86 1876.33 4479.8 1876.33 4479.8 1816.12 4447.63 1816.12"/>
  <path d="M4537.56,1655.57v180.62h61.29v-141.22h16.2v-39.39h-77.49Z"/>
  <path d="M4272.7,1656.32v180.62h61.29v-141.22h7.16v-39.39h-68.45Z"/>
  <polygon points="4021.28 4859.59 4171.33 4859.59 4171.33 4902.97 4129.07 4902.97 4129.07 4941.96 4021.28 4941.96 4021.28 4859.59"/>
  <rect x="3968.45" y="4671.62" width="105.67" height="59.81"/>
  <polygon points="4125.31 5062.9 4208.91 5062.9 4208.91 5047.12 4281.7 5047.12 4281.7 5067.28 4254.93 5067.28 4254.93 5100.14 4277 5100.14 4277 5129.94 4125.31 5129.94 4125.31 5062.9"/>
  <rect x="4223.46" y="4718.79" width="57.06" height="43.38"/>
  <polygon points="4022.93 4305.39 4089.62 4305.39 4089.62 4317.22 4187.77 4317.22 4187.77 4374.18 4022.93 4374.18 4022.93 4305.39"/>
  <polygon points="4023.39 4577.05 4123.9 4577.05 4123.9 4597.2 4151.14 4597.2 4151.14 4631.71 4003.2 4631.71 4003.2 4596.33 4023.39 4596.33 4023.39 4577.05"/>
  <polygon points="4207.26 5351.39 4229.1 5351.39 4229.1 5329.7 4279.47 5329.7 4279.47 5411.53 4207.26 5411.53 4207.26 5351.39"/>
  <polygon points="4142.8 5452.93 4240.72 5452.93 4240.72 5472.98 4266.44 5472.98 4266.44 5507.16 4111.81 5507.16 4111.81 5480.54 4142.8 5480.54 4142.8 5452.93"/>
  <polygon points="4298.14 5160.24 4431.05 5160.24 4431.05 5142.28 4549.87 5142.28 4549.87 5226.4 4431.05 5226.4 4431.05 5189.16 4368.59 5189.16 4368.59 5223.77 4298.14 5223.77 4298.14 5160.24"/>
  <polygon points="4399.58 5065.6 4432.46 5065.6 4432.46 5048.95 4461.58 5048.95 4461.58 5065.6 4591.67 5065.6 4591.67 5089.26 4617.97 5089.26 4617.97 5126.5 4399.58 5126.5 4399.58 5065.6"/>
  <polygon points="4428.51 4872.82 4428.51 4898.98 4470.78 4898.98 4470.78 4928.4 4567.29 4928.4 4567.29 4872.82 4428.51 4872.82"/>
  <polygon points="4419.31 4725.37 4419.31 4757.57 4512.77 4757.57 4512.77 4692.94 4435.28 4692.94 4435.28 4725.37 4419.31 4725.37"/>
  <rect x="4242.49" y="5586.35" width="36.63" height="44.69"/>
  <rect x="4310.82" y="5343.17" width="51.43" height="71.64"/>
  <rect x="4031.14" y="5327.4" width="103.56" height="72.95"/>
  <rect x="4467.92" y="5343.17" width="78.9" height="51.92"/>
  <rect x="4373.52" y="5243.27" width="129.62" height="71.64"/>
  <rect x="4007.19" y="4983.66" width="112.01" height="46.66"/>
  <rect x="3960.7" y="4762.17" width="78.9" height="60.47"/>
  <rect x="4363.88" y="4821.82" width="39.45" height="22.85"/>
  <rect x="4339.85" y="4788.57" width="39.45" height="22.85"/>
  <rect x="4207.97" y="4607.72" width="72.56" height="47.98"/>
  <rect x="4081.16" y="4501.9" width="72.56" height="40.75"/>
  <rect x="3993.1" y="4403.32" width="92.29" height="63.1"/>
  <rect x="4129.07" y="4417.78" width="61.29" height="48.64"/>
  <rect x="4401.21" y="4438.93" width="138.49" height="31.55"/>
  <rect x="4473.3" y="4327.91" width="76.08" height="62.02"/>
  <polygon points="4055.52 2483.42 4145.29 2488.41 4138.3 2633.98 4099.71 2632.55 4098.92 2646.52 4047.73 2642.96 4055.52 2483.42"/>
  <polygon points="4060.41 2094.27 4085.06 2094.27 4085.06 2075.64 4132.62 2075.64 4132.62 2257.75 4060.41 2257.75 4060.41 2094.27"/>
  <rect x="3995.83" y="2311.03" width="55.42" height="47.94"/>
  <rect x="4005.45" y="2174.37" width="34.61" height="100.36"/>
  <rect x="4178.76" y="2128.79" width="50.72" height="109.42"/>
  <rect x="4360.16" y="2209.29" width="52.48" height="96.92"/>
  <rect x="4476.4" y="2227.27" width="50.72" height="37.91"/>
  <rect x="4541.91" y="2088.54" width="76.79" height="173.12"/>
  <rect x="4535.57" y="2328.48" width="84.89" height="60.18"/>
  <rect x="4478.63" y="2446.88" width="38.98" height="195.39"/>
  <rect x="4326.46" y="2548.49" width="91.11" height="149.09"/>
  <rect x="4157.86" y="2428.64" width="77.02" height="119.84"/>
  <polygon points="4542.27 2544.58 4564.81 2544.58 4564.81 2504.33 4613.07 2504.33 4613.07 2600.46 4542.27 2600.46 4542.27 2544.58"/>
  <rect x="3965.3" y="4138.26" width="158.15" height="74.79"/>
  <rect x="4293.59" y="4105.35" width="42.27" height="72.55"/>
  <rect x="4432.37" y="4095.27" width="95.81" height="98.07"/>
  <rect x="4190.73" y="4040.19" width="76.79" height="44.33"/>
  <rect x="4211.87" y="3945.14" width="51.07" height="48.7"/>
  <rect x="4373.9" y="3941.44" width="38.04" height="60.46"/>
  <rect x="4419.99" y="3850.26" width="150.46" height="46.85"/>
  <rect x="4442.91" y="3745.46" width="102.15" height="63.82"/>
  <rect x="4061.4" y="3749.99" width="119.76" height="47.99"/>
  <rect x="4066.92" y="3649.59" width="99.33" height="58.44"/>
  <rect x="4458.43" y="3557.88" width="131.03" height="26.87"/>
  <rect x="4045.18" y="3496.18" width="81.98" height="27.77"/>
  <rect x="4210.89" y="3592.96" width="81.98" height="27.77"/>
  <rect x="4149.94" y="3459.19" width="49.44" height="64.76"/>
  <rect x="4149.94" y="3396.7" width="54.95" height="32.24"/>
  <rect x="4167.84" y="3649.75" width="49.35" height="39.31"/>
  <rect x="4224.64" y="3403.78" width="70.36" height="41.29"/>
  <rect x="4235.47" y="3555.19" width="54.95" height="32.24"/>
  <rect x="4251.88" y="3784.82" width="40.47" height="32.24"/>
  <rect x="4217.19" y="3749.66" width="74.33" height="32.24"/>
  <rect x="3993.1" y="4079.15" width="123.49" height="32.24"/>
  <rect x="4095" y="3365.13" width="59.88" height="23.87"/>
  <rect x="4072.03" y="3447.25" width="59.88" height="23.87"/>
  <rect x="4441.53" y="3359.04" width="103.73" height="79.27"/>
  <rect x="4483.09" y="3258.95" width="106.38" height="36.27"/>
  <rect x="4479.57" y="2982.19" width="105.67" height="73.22"/>
  <rect x="4038.57" y="2976.15" width="122.58" height="55.75"/>
  <rect x="4315.81" y="2903.6" width="46.82" height="52.4"/>
  <rect x="4320.09" y="2841.86" width="42.53" height="52.4"/>
  <rect x="4414.76" y="2859.94" width="128.92" height="43.66"/>
  <polygon points="4034.34 2887.48 4165.37 2887.48 4165.37 2929.8 4189.33 2929.8 4189.33 2957.68 4014.62 2957.68 4014.62 2913.68 4034.34 2913.68 4034.34 2887.48"/>
  <polygon points="4187.87 3152.54 4061.99 3145.46 4066.43 3073.71 4192.31 3080.79 4187.87 3152.54"/>
  <polygon points="4122.72 3246.81 4023.78 3241.24 4028.22 3169.49 4127.15 3175.05 4122.72 3246.81"/>
  <polygon points="4150.58 3275.74 4241.81 3275.74 4241.81 3343.59 4101.97 3343.59 4101.97 3306.98 4150.58 3306.98 4150.58 3275.74"/>
  <polygon points="4072.03 3552.77 4205.53 3552.77 4205.53 3578.63 4167.14 3578.63 4167.14 3606.85 4072.03 3606.85 4072.03 3552.77"/>
  <polygon points="4306.97 3588.1 4317.89 3588.1 4317.89 3557.88 4441.53 3557.88 4441.53 3629.75 4374.25 3629.75 4374.25 3578.03 4348.54 3578.03 4348.54 3605.91 4306.97 3605.91 4306.97 3588.1"/>
  <polygon points="4027.65 3856.47 4174.88 3856.47 4174.88 3897.11 4205.53 3897.11 4205.53 3927.33 4027.65 3927.33 4027.65 3856.47"/>
  <polygon points="4137.9 3947.82 4137.9 3967.3 4167.84 3967.3 4167.84 3993.84 4023.42 3993.84 4023.42 3947.82 4137.9 3947.82"/>
  <polygon points="4432.37 4019.14 4544.38 4019.14 4544.38 4040.19 4585.71 4040.19 4585.71 4065.27 4432.37 4065.27 4432.37 4019.14"/>
  <rect x="4151.99" y="4138.26" width="59.88" height="39.63"/>
  <rect x="4471.82" y="3080.27" width="113.42" height="60.46"/>
  <rect x="4120.87" y="1541.27" width="38.9" height="55.22"/>
  <rect x="4341.61" y="1438.44" width="58.71" height="61.94"/>
  <rect x="6263.48" y="4420.04" width="169.02" height="43.81"/>
  <rect x="6643.73" y="4396.46" width="141.46" height="87.63"/>
  <rect x="6325.06" y="4624.57" width="143.41" height="90.4"/>
  <rect x="6504.34" y="4711.56" width="48.29" height="43.37"/>
  <rect x="6474.66" y="4615.57" width="37.64" height="55.65" transform="translate(11136.88 -1850.09) rotate(90)"/>
  <rect x="6448.6" y="4865.25" width="84.88" height="76.23"/>
  <rect x="6577.77" y="4897.15" width="104.09" height="83.86"/>
  <rect x="6691.2" y="4882.49" width="122.89" height="64.78"/>
  <rect x="6586.96" y="4868.91" width="80" height="27.16"/>
  <rect x="6657.32" y="5099.48" width="80" height="27.16"/>
  <rect x="6555.85" y="4983.34" width="62.36" height="34.85" transform="translate(11587.79 -1586.26) rotate(90)"/>
  <rect x="6347.99" y="4986.42" width="151.22" height="56.08"/>
  <polygon points="6337.4 5058.69 6426.67 5058.69 6426.67 5067.45 6465.69 5067.45 6465.69 5114.77 6337.4 5114.77 6337.4 5058.69"/>
  <polygon points="6449.44 5405.5 6355.3 5405.5 6355.3 5396.16 6314.15 5396.16 6314.15 5345.74 6449.44 5345.74 6449.44 5405.5"/>
  <polygon points="6469.58 5108.39 6506.24 5108.39 6506.24 5067.75 6552.64 5067.75 6552.64 5135.14 6469.58 5135.14 6469.58 5108.39"/>
  <path d="M6578.9,4690.43v72.29h42.93v-19.72h134.63v-34.17h-41.46v-14.46h-54.15v-23.66h-52.2v19.72h-29.76Z"/>
  <polygon points="6432.51 4382 6448.6 4382 6448.6 4320.22 6545.92 4320.22 6545.92 4484.08 6457.38 4484.08 6457.38 4412.89 6432.51 4412.89 6432.51 4382"/>
  <rect x="6309.29" y="3205.44" width="104.47" height="93.15"/>
  <rect x="6452.87" y="3295.19" width="89.76" height="50.16"/>
  <rect x="6302.02" y="3359.65" width="78.39" height="71.5"/>
  <rect x="6371.53" y="3596.5" width="148.29" height="38.51"/>
  <rect x="6598.6" y="3555.22" width="108.92" height="48.37"/>
  <rect x="6420.68" y="3371.22" width="77.07" height="48.37"/>
  <rect x="6695.7" y="3629.71" width="150.63" height="79.32"/>
  <rect x="6257.38" y="3662.22" width="143.41" height="58.22"/>
  <rect x="6489.09" y="3672.12" width="64.39" height="66.67"/>
  <rect x="6666.39" y="3845.39" width="104.39" height="67.62"/>
  <rect x="6675.68" y="3940.43" width="121.46" height="54.63"/>
  <rect x="6571.53" y="3951.95" width="74.15" height="57.32"/>
  <rect x="6357.87" y="4039.29" width="68.29" height="47.47"/>
  <rect x="6426.16" y="4039.29" width="125.85" height="47.47"/>
  <polygon points="6583.62 4039.6 6657.77 4039.6 6657.77 4053.48 6831.43 4053.48 6831.43 4113.04 6657.77 4113.04 6657.77 4101.85 6583.62 4101.85 6583.62 4039.6"/>
  <polygon points="6571.53 3951.95 6571.53 3885.23 6613.48 3885.23 6613.48 3930.91 6599.82 3930.91 6599.82 3951.95 6571.53 3951.95"/>
  <polygon points="6507.74 3940.43 6507.74 3979.93 6481.92 3979.93 6481.92 4009.28 6301.21 4009.28 6301.21 3979.93 6402.63 3979.93 6402.63 3940.43 6507.74 3940.43"/>
  <polygon points="6260.31 4039.29 6340.31 4039.29 6340.31 4076.91 6325.19 4076.91 6325.19 4089.9 6357.87 4089.9 6357.87 4158.86 6329.58 4158.86 6329.58 4170.5 6260.31 4170.5 6260.31 4039.29"/>
  <polygon points="6569.09 3669.39 6569.09 3734.77 6629.09 3734.77 6629.09 3655.95 6608.6 3655.95 6608.6 3669.39 6569.09 3669.39"/>
  <polygon points="6384.28 3555.22 6384.28 3578.93 6394.28 3578.93 6394.28 3596.5 6481.96 3596.5 6481.96 3555.22 6384.28 3555.22"/>
  <polygon points="6331.69 2853.89 6470.23 2853.89 6470.23 2923.31 6443.4 2923.31 6443.4 2948.83 6409.74 2948.83 6409.74 2962.27 6344.86 2962.27 6344.86 2879.87 6331.69 2879.87 6331.69 2853.89"/>
  <polygon points="6319.98 3009.07 6437.54 3009.07 6437.54 3025.19 6470.23 3025.19 6470.23 3056.09 6319.98 3056.09 6319.98 3009.07"/>
  <polygon points="6439.82 2983.76 6524.21 2983.76 6524.21 3028.54 6492.51 3028.54 6492.51 3011.97 6439.82 3011.97 6439.82 2983.76"/>
  <path d="M6681.29,2120.78h-112.68v133.38h23.41v43.24h66.34v-42.72h22.93v-133.9Z"/>
  <polygon points="6561.29 2297.4 6695.92 2297.4 6695.92 2394.05 6610.31 2394.05 6610.31 2377.9 6598.97 2377.9 6598.97 2353.15 6561.29 2353.15 6561.29 2297.4"/>
  <polygon points="6609.94 2476.88 6633.36 2476.88 6633.36 2458.91 6671.41 2458.91 6671.41 2658.59 6609.94 2658.59 6609.94 2476.88"/>
  <polygon points="6702.51 2421.01 6766.9 2421.01 6766.9 2512.44 6782.99 2512.44 6782.99 2585.52 6671.41 2585.52 6671.41 2474.93 6702.51 2474.93 6702.51 2421.01"/>
  <polygon points="6793.6 2517.13 6819.58 2517.13 6819.58 2489.78 6874.82 2489.78 6874.82 2599.58 6793.6 2599.58 6793.6 2517.13"/>
  <rect x="6249.58" y="2116.61" width="69.15" height="140.28"/>
  <rect x="6300.8" y="2293.93" width="65.12" height="36.62"/>
  <rect x="6220.98" y="2326.01" width="76.52" height="63.56"/>
  <rect x="6297.51" y="2338" width="97.62" height="49.5"/>
  <rect x="6395.13" y="2338" width="107.32" height="49.5"/>
  <rect x="6517.2" y="2314.34" width="44.09" height="47.09"/>
  <rect x="6517.2" y="2091.6" width="51.4" height="187.56"/>
  <rect x="6706.9" y="2113.1" width="41.34" height="159.43"/>
  <rect x="6522.87" y="2472.59" width="64.02" height="173.89"/>
  <rect x="6425.92" y="2458.91" width="68.78" height="93"/>
  <rect x="6425.92" y="2551.91" width="68.78" height="87.53"/>
  <rect x="6223.97" y="2628.89" width="79.76" height="43.77"/>
  <rect x="6485.5" y="5375.7" width="52.81" height="43.88"/>
  <rect x="6347.99" y="5199.37" width="101.44" height="22.78"/>
  <rect x="6831.65" y="1829.71" width="47.8" height="94.14"/>
  <rect x="6230.55" y="1670.16" width="73.66" height="33.2"/>
  <rect x="6345.27" y="1675.12" width="24.88" height="77.3"/>
  <rect x="6227.14" y="1839.91" width="77.07" height="55.99"/>
  <rect x="6345.27" y="1785.16" width="76.83" height="147.16"/>
  <path d="M6268.16,1800.48v-97.12h46.3v132.05h-92.15v-34.93h45.86Z"/>
  <polygon points="6766.53 1923.85 6710.81 1923.85 6710.81 1746.96 6766.53 1746.96 6766.53 1773.72 6785.66 1773.72 6785.66 1829.46 6766.53 1829.46 6766.53 1923.85"/>
  <rect x="6798.85" y="1495.16" width="40" height="70.24"/>
  <polygon points="6626.66 1325.21 6669.22 1325.21 6669.22 1411.22 6690.28 1411.22 6690.28 1478.08 6626.66 1478.08 6626.66 1325.21"/>
  <polygon points="6710.92 1455.01 6765.55 1455.01 6765.55 1513.48 6790.43 1513.48 6790.43 1557.08 6710.92 1557.08 6710.92 1455.01"/>
  <rect x="2522.02" y="2143.95" width="32.88" height="76.07"/>
  <rect x="2477.88" y="2290.36" width="87.35" height="96.92"/>
  <rect x="2678.42" y="2162.71" width="56.83" height="63.05"/>
  <rect x="2534.35" y="1680.37" width="50.09" height="73.8" transform="translate(4276.66 -842.13) rotate(90)"/>
  <rect x="2852.66" y="2134.57" width="54.48" height="85.45"/>
  <rect x="2953.16" y="2202.31" width="38.98" height="154.23"/>
  <rect x="3054.61" y="2097.58" width="45.56" height="102.13"/>
  <polygon points="2597.99 2290.36 2636.38 2290.36 2636.38 2323.71 2664.21 2323.71 2664.21 2290.36 2738.18 2290.36 2738.18 2359.27 2597.99 2359.27 2597.99 2290.36"/>
  <polygon points="2956.45 2540.85 2975.7 2540.85 2975.7 2517.93 3008.11 2517.93 3008.11 2546.58 3085.13 2546.58 3085.13 2615.88 2956.45 2615.88 2956.45 2540.85"/>
  <rect x="3054.61" y="2199.7" width="45.56" height="161"/>
  <rect x="2504.65" y="2427.26" width="32.41" height="68.26"/>
  <rect x="2594.48" y="2521.24" width="32.41" height="102.3"/>
  <rect x="2482.02" y="2547.74" width="68.92" height="83.35"/>
  <polygon points="2503.71 1761.97 2592.53 1761.97 2592.53 1802.61 2615.07 1802.61 2615.07 1885.86 2592.53 1885.86 2592.53 1917.57 2503.71 1917.57 2503.71 1761.97"/>
  <rect x="2665.33" y="1790.6" width="58.24" height="149.65"/>
  <rect x="2963.96" y="1659.78" width="57.3" height="83.25"/>
  <polygon points="2758.61 1798.65 2758.61 1946.94 2861.11 1946.94 2861.11 1841.77 2811.45 1841.77 2811.45 1825.41 2824.48 1825.41 2824.48 1798.65 2758.61 1798.65"/>
  <polygon points="3110.99 1882.74 3031.02 1868.74 3058.54 1693.77 3138.5 1707.77 3110.99 1882.74"/>
  <rect x="2961.15" y="5425.17" width="79.84" height="58.71"/>
  <rect x="2857.24" y="5363.39" width="131.5" height="50.83"/>
  <rect x="2871.7" y="5260.19" width="112.82" height="62.99"/>
  <rect x="3024.98" y="5256.28" width="66.69" height="61.64"/>
  <rect x="2911.36" y="5147.81" width="120.98" height="27.59"/>
  <rect x="2705.41" y="5153.07" width="63.87" height="24.54"/>
  <rect x="2624.41" y="5388.8" width="63.87" height="24.54"/>
  <rect x="2603.27" y="5359.18" width="63.87" height="24.54"/>
  <polygon points="2680.3 5334.91 2742.29 5334.91 2742.29 5376.97 2760.14 5376.97 2760.14 5413.34 2711.29 5413.34 2711.29 5384.86 2680.3 5384.86 2680.3 5334.91"/>
  <polygon points="2599.52 5265.24 2599.52 5323.95 2654.94 5323.95 2654.94 5297.22 2717.87 5297.22 2717.87 5265.24 2599.52 5265.24"/>
  <polygon points="2715.98 5249.79 2715.98 5296.46 2768.12 5296.46 2768.12 5267.54 2756.96 5267.54 2756.96 5249.79 2715.98 5249.79"/>
  <path d="M2635.21,5221.2v-37.68h55.18v12.49h27.94v25.19h-83.13Z"/>
  <polygon points="2666.68 5056.43 2791.37 5056.43 2791.37 5134.64 2736.42 5134.64 2736.42 5121.49 2666.68 5121.49 2666.68 5056.43"/>
  <polygon points="2551.31 4868.7 2684.88 4868.7 2684.88 4945.77 2594.64 4945.77 2594.64 4916.96 2551.31 4916.96 2551.31 4868.7"/>
  <polygon points="2606.33 4782.2 2723.27 4782.2 2723.27 4794.49 2697.91 4794.49 2697.91 4853.54 2606.33 4853.54 2606.33 4782.2"/>
  <polygon points="2723.27 4485.97 2791.84 4485.97 2791.84 4559.8 2765.77 4559.8 2765.77 4537.23 2723.27 4537.23 2723.27 4485.97"/>
  <rect x="2727.5" y="4421.78" width="64.34" height="46.23"/>
  <polygon points="2651.18 4434.05 2651.18 4459.46 2558.42 4459.46 2558.42 4411.04 2592.24 4411.04 2592.24 4434.05 2651.18 4434.05"/>
  <polygon points="2962.58 5197.81 2962.58 5226.57 2848.43 5226.57 2848.43 5171.78 2905.5 5171.78 2905.5 5197.81 2962.58 5197.81"/>
  <rect x="2829.17" y="4885.1" width="64.81" height="64.04"/>
  <rect x="2972.89" y="4874.63" width="104.19" height="70.48"/>
  <rect x="2544.66" y="5600.47" width="114.37" height="50.27"/>
  <rect x="2579.35" y="5530.04" width="105.57" height="70.1"/>
  <rect x="2688.28" y="5430.03" width="59.18" height="85.88"/>
  <rect x="2575.16" y="5150.22" width="87.35" height="70.98"/>
  <rect x="2557.48" y="4961.24" width="121.24" height="54.77"/>
  <rect x="2683.35" y="4868.7" width="79.84" height="42.28"/>
  <rect x="2555.86" y="4676.23" width="55.87" height="51.65"/>
  <rect x="2662.27" y="4674.03" width="102.48" height="57.17"/>
  <rect x="2565.01" y="4492.35" width="111.06" height="46.88"/>
  <rect x="2696.89" y="4792.51" width="73.27" height="32.5"/>
  <rect x="2581.59" y="4997.15" width="57.11" height="29.54" transform="translate(7622.07 2401.78) rotate(90)"/>
  <rect x="2559.6" y="4315.31" width="85.48" height="61.34"/>
  <rect x="2653.06" y="4316.62" width="68.57" height="58.71"/>
  <rect x="2923.38" y="4433.96" width="157.06" height="39.74"/>
  <rect x="2867.55" y="4491.44" width="242.25" height="58.17"/>
  <rect x="2604.68" y="2808.4" width="147.47" height="151.44"/>
  <polygon points="2807.22 4110.41 2807.22 4171.99 2855.83 4171.99 2855.83 4110.41 2868.51 4110.41 2868.51 4042.23 2824.13 4042.23 2824.13 4110.41 2807.22 4110.41"/>
  <polygon points="2886.82 3969.57 3014.33 3969.57 3014.33 4013.68 2920.29 4013.68 2920.29 3998.23 2886.82 3998.23 2886.82 3969.57"/>
  <polygon points="2944.3 3749.4 3070.57 3749.4 3070.57 3776.19 3049.43 3776.19 3049.43 3806.85 2995.56 3806.85 2995.56 3772.33 2944.3 3772.33 2944.3 3749.4"/>
  <polygon points="2902.37 2815.66 2948.87 2815.66 2948.87 2793.19 3032.94 2793.19 3032.94 2943.8 2954.5 2943.8 2954.5 2915.59 2902.37 2915.59 2902.37 2815.66"/>
  <rect x="2527.66" y="4169.01" width="105.67" height="23.13"/>
  <rect x="2725.38" y="4171.99" width="60.58" height="30.9"/>
  <rect x="2491.97" y="4138.11" width="60.58" height="30.9"/>
  <rect x="2494.69" y="3955.33" width="48.26" height="38.79" transform="translate(6493.54 1455.9) rotate(90)"/>
  <rect x="2911.83" y="4138.4" width="51.19" height="40.3"/>
  <rect x="2886.82" y="4394.9" width="56.22" height="29.4"/>
  <rect x="2972.42" y="4146.02" width="55.89" height="38.51"/>
  <rect x="2924.98" y="4058.24" width="92.05" height="65.38"/>
  <rect x="2770.47" y="3969.57" width="33.35" height="62.7"/>
  <rect x="2568.98" y="3867.07" width="135.03" height="34.61"/>
  <rect x="2602.33" y="3669.61" width="129.15" height="37.41"/>
  <rect x="2922.25" y="2976.74" width="146.53" height="42.99"/>
  <rect x="2806.18" y="2879.23" width="76.08" height="80.61"/>
  <rect x="2806.18" y="2975.99" width="38.04" height="80.61"/>
  <polygon points="2725.14 4085.33 2568.98 4085.33 2568.98 3942.03 2661.2 3942.03 2661.2 4004.45 2725.14 4004.45 2725.14 4085.33"/>
  <rect x="2669.23" y="1362.5" width="50.43" height="158.57"/>
  <rect x="2843.39" y="1348.36" width="59.59" height="145.2"/>
  <rect x="2949.55" y="1405.79" width="58.81" height="184.92"/>
  <rect x="3054.93" y="1357.57" width="46.18" height="145.2"/>
  <rect x="3328.24" y="2870.28" width="29.4" height="73.8" transform="translate(6250.11 -435.77) rotate(90)"/>
  <rect x="3628.66" y="2800.34" width="36.91" height="58.79" transform="translate(7294.23 5659.47) rotate(180)"/>
  <rect x="3762.63" y="2806.44" width="29.4" height="73.8" transform="translate(933.99 6620.67) rotate(-90)"/>
  <rect x="3345.7" y="2907.33" width="29.4" height="73.8" transform="translate(6304.63 -416.17) rotate(90)"/>
  <rect x="3321.59" y="4527.58" width="116.5" height="35.94"/>
  <rect x="3692.62" y="4961.65" width="122.09" height="77.01"/>
  <polygon points="3571.15 5466.9 3599.8 5466.9 3599.8 5490.56 3659.92 5490.56 3659.92 5511.16 3571.15 5511.16 3571.15 5466.9"/>
  <polygon points="3392.81 4820.18 3392.81 4838.91 3465.72 4838.91 3465.72 4813.28 3449.16 4813.28 3449.16 4820.18 3392.81 4820.18"/>
  <polygon points="3295 4294.82 3423.68 4294.82 3423.68 4322.43 3398.09 4322.43 3398.09 4378.51 3313.32 4378.51 3313.32 4321.99 3295 4321.99 3295 4294.82"/>
  <polygon points="3681.71 4331.85 3831.06 4331.85 3831.06 4405.89 3727.27 4405.89 3727.27 4425.17 3681.71 4425.17 3681.71 4331.85"/>
  <rect x="3287.49" y="4389.03" width="110.6" height="84.78"/>
  <rect x="3291.01" y="4688.07" width="166.96" height="55.21"/>
  <rect x="3661.66" y="4684.54" width="158.51" height="34.18"/>
  <rect x="3267.06" y="4793.23" width="50.02" height="40.09"/>
  <rect x="3292.07" y="4872.1" width="78.37" height="73.12"/>
  <rect x="3640.44" y="5081.34" width="72.56" height="56.52"/>
  <rect x="3692.62" y="5152.74" width="139.46" height="37.4"/>
  <rect x="3632.81" y="4524.06" width="97.8" height="37.4"/>
  <rect x="3396.68" y="5575.39" width="52.13" height="61.34"/>
  <rect x="3446.23" y="5535.25" width="85.48" height="65.72"/>
  <polyline points="3403.49 2933.85 3403.49 2958.93 3514.8 2958.93 3514.8 2921.76 3481.92 2921.76 3481.92 2882.58 3419.93 2882.58 3419.93 2934.3 3401.89 2934.3"/>
  <polygon points="3398.64 3091.42 3309.72 3073.53 3322.15 3017.34 3411.07 3035.22 3398.64 3091.42"/>
  <polygon points="3559.41 2882.58 3633.38 2882.58 3633.38 2913.7 3611.9 2913.7 3611.9 2961.17 3559.41 2961.17 3559.41 2882.58"/>
  <polygon points="3673.18 2862.76 3673.18 2805.33 3733.42 2805.33 3733.42 2844.63 3698.19 2844.63 3698.19 2862.76 3673.18 2862.76"/>
  <polygon points="3279.74 3508.98 3298.41 3508.98 3298.41 3499.24 3318.48 3499.24 3318.48 3482.11 3374.49 3482.11 3374.49 3493.53 3402.67 3493.53 3402.67 3536.18 3279.74 3536.18 3279.74 3508.98"/>
  <polygon points="3302.99 3558.47 3432.26 3558.47 3432.26 3607.51 3395.98 3607.51 3346.32 3624.64 3302.99 3608.18 3302.99 3558.47"/>
  <polygon points="3650.29 3547.67 3813.82 3547.67 3813.82 3601.08 3784.14 3601.08 3784.14 3612.16 3650.29 3612.16 3650.29 3547.67"/>
  <polygon points="3264.59 3938.56 3447.05 3938.56 3447.05 3985.58 3517.5 3985.58 3517.5 4020.17 3361.81 4020.17 3361.81 3989.61 3264.59 3989.61 3264.59 3938.56"/>
  <polygon points="3602.62 3951.32 3629.86 3951.32 3629.86 3938.56 3711.58 3938.56 3711.58 4003.27 3629.86 4003.27 3629.86 3979.36 3602.62 3979.36 3602.62 3951.32"/>
  <polygon points="3347.13 4044.47 3488.97 4044.47 3488.97 4144.33 3409.59 4144.33 3409.59 4207.03 3343.37 4207.03 3343.37 4138.06 3373.43 4138.06 3373.43 4099.1 3347.13 4099.1 3347.13 4044.47"/>
  <rect x="3715.81" y="2889.07" width="123.05" height="49.26"/>
  <rect x="3475.35" y="2976.85" width="61.52" height="58.67"/>
  <rect x="3320.21" y="3658.52" width="132.44" height="65.38"/>
  <rect x="3270.58" y="3770.4" width="139.96" height="60.9"/>
  <rect x="3560.82" y="3774.88" width="64.81" height="47.47"/>
  <rect x="3628.66" y="3745.99" width="103.39" height="48.81"/>
  <rect x="3479.1" y="3843.84" width="56.36" height="89.57"/>
  <rect x="3566.46" y="4048.87" width="215.1" height="164.8"/>
  <polygon points="3651.93 3071.36 3847.31 3071.36 3847.31 3155.1 3715.81 3155.1 3715.81 3133.16 3651.93 3133.16 3651.93 3071.36"/>
  <polygon points="3233.48 2539.4 3233.48 2668.1 3277.62 2668.1 3277.62 2567.01 3264.47 2567.01 3264.47 2539.4 3233.48 2539.4"/>
  <polygon points="3639.02 2318.74 3705.59 2318.74 3705.59 2344.53 3675.3 2344.53 3675.3 2374.23 3706.65 2374.23 3706.65 2393.77 3639.02 2393.77 3639.02 2318.74"/>
  <polygon points="3586.89 2421.51 3605.56 2421.51 3605.56 2441.83 3657.69 2441.83 3657.69 2425.81 3679.88 2425.81 3679.88 2480.13 3667.2 2480.13 3667.2 2603.23 3604.85 2603.23 3604.85 2494.59 3586.89 2494.59 3586.89 2421.51"/>
  <polygon points="3772.87 2443.78 3679.88 2443.78 3679.88 2480.13 3701.72 2480.13 3701.72 2553.21 3691.85 2553.21 3691.85 2574.31 3679.88 2574.31 3679.88 2619.64 3691.85 2619.64 3691.85 2632.93 3772.87 2632.93 3772.87 2443.78"/>
  <polygon points="3803.51 2433.62 3884.53 2433.62 3884.53 2468.4 3860.22 2468.4 3860.22 2677.87 3803.51 2677.87 3803.51 2433.62"/>
  <rect x="3393.16" y="2223.78" width="48.84" height="101.08"/>
  <rect x="3520.36" y="2122.64" width="60.11" height="121.93"/>
  <rect x="3482.86" y="2264.94" width="79.37" height="97.96"/>
  <rect x="3647.71" y="2089.87" width="92.52" height="110.98"/>
  <rect x="3798.93" y="2093.52" width="82.19" height="157.36"/>
  <rect x="3509.63" y="2460.2" width="46.03" height="68.78"/>
  <rect x="3348.42" y="2509.76" width="51.19" height="165.37"/>
  <rect x="3320.36" y="2173.76" width="61.05" height="154.23"/>
  <rect x="3320.36" y="2327.99" width="61.05" height="63.05"/>
  <rect x="3329.75" y="1781.79" width="76.08" height="110.01"/>
  <rect x="3478.16" y="1743.14" width="92.99" height="82.26"/>
  <rect x="3339.45" y="1353.55" width="67.85" height="82.26"/>
  <rect x="3576.63" y="1363.36" width="75.73" height="91.81"/>
  <rect x="3614.49" y="1523.26" width="51.66" height="73.34"/>
  <rect x="3825.7" y="1659.89" width="58.71" height="61.94"/>
  <rect x="3801.28" y="1814.5" width="24.42" height="123.88"/>
  <polygon points="3323.41 1659.89 3323.41 1717.37 3377.66 1717.37 3377.66 1685.41 3359.34 1659.89 3323.41 1659.89"/>
  <polygon points="3216.33 1784.27 3276.21 1784.27 3276.21 1801.37 3298.05 1801.37 3298.05 1898.74 3216.33 1898.74 3216.33 1784.27"/>
  <polygon points="3617.18 1743.14 3617.18 1924.01 3673.54 1924.01 3673.54 1775.01 3636.9 1775.01 3636.9 1743.14 3617.18 1743.14"/>
  <polygon points="3716.51 1854.88 3716.51 1891.8 3695.38 1891.8 3695.38 1964.15 3755.26 1964.15 3755.26 1854.88 3716.51 1854.88"/>
  <polygon points="3712.3 1561.07 3712.3 1584.11 3755.37 1584.11 3755.37 1563.3 3785.09 1563.3 3785.09 1500.49 3725.04 1500.49 3725.04 1561.07 3712.3 1561.07"/>
  <polygon points="3803.16 1385.65 3860.22 1385.65 3860.22 1459.24 3848.95 1459.24 3848.95 1503.84 3874.31 1503.84 3874.31 1571.47 3803.16 1571.47 3803.16 1385.65"/>
  <rect x="3445.6" y="1357.68" width="46.18" height="145.2"/>
  <rect x="3236.25" y="1445.61" width="56.84" height="145.2"/>
  <rect x="3332.39" y="1439.84" width="56.84" height="145.2"/>
  <rect x="1005.93" y="2525.77" width="123.28" height="131.14"/>
  <rect x="1489.95" y="2497.98" width="109.9" height="130.26"/>
  <rect x="1076.78" y="2145.19" width="73.27" height="104.75"/>
  <rect x="1083.35" y="2249.94" width="55.65" height="132.94"/>
  <rect x="1581.78" y="2127.41" width="28.88" height="81.02"/>
  <rect x="1297.74" y="2487.44" width="24.66" height="108.64"/>
  <rect x="1387.25" y="2451.62" width="28.88" height="68"/>
  <polygon points="1521.3 2184.79 1553.7 2184.79 1553.7 2209.54 1568.5 2209.54 1568.5 2316.1 1553.7 2316.1 1553.7 2345.02 1521.3 2345.02 1521.3 2184.79"/>
  <polygon points="979.32 4034.88 1051.18 4034.88 1051.18 4070.71 1121.16 4070.71 1121.16 4150.87 1051.18 4150.87 1051.18 4168.33 979.32 4168.33 979.32 4034.88"/>
  <polygon points="1053.36 2847.78 1053.36 2924.36 1152.93 2924.36 1152.93 2907.34 1205.06 2907.34 1205.06 2847.78 1053.36 2847.78"/>
  <polygon points="1053.36 3115.22 1053.36 3151.48 1218.92 3151.48 1218.92 3115.22 1186.65 3115.22 1186.65 3092.14 1075.64 3092.14 1075.64 3115.22 1053.36 3115.22"/>
  <polygon points="1128.84 3183.8 1128.84 3219.29 1093.38 3219.29 1093.38 3251.41 1243.62 3251.41 1243.62 3183.8 1128.84 3183.8"/>
  <polygon points="1217.79 3361.26 1271.68 3361.26 1271.68 3385.11 1286.12 3385.11 1286.12 3438.51 1217.79 3438.51 1217.79 3361.26"/>
  <polygon points="1126.21 3413.15 1183.62 3413.15 1183.62 3453.45 1156.85 3453.45 1156.85 3479.31 1126.21 3479.31 1126.21 3413.15"/>
  <polygon points="1354.57 3070.33 1354.57 3099.89 1329.45 3099.89 1329.45 3147.14 1412.1 3147.14 1412.1 3070.33 1354.57 3070.33"/>
  <polygon points="1407.63 2945.91 1407.63 3000.54 1449.9 3000.54 1449.9 3026.52 1491.7 3026.52 1491.7 3000.54 1597.37 3000.54 1597.37 2945.91 1516.59 2945.91 1516.59 2915.9 1474.79 2915.9 1474.79 2945.91 1407.63 2945.91"/>
  <polygon points="1438.86 3165.05 1580.23 3165.05 1580.23 3185.65 1558.62 3185.65 1558.62 3210.28 1438.86 3210.28 1438.86 3165.05"/>
  <polygon points="1402.7 3225.51 1538.43 3225.51 1538.43 3245.66 1507.43 3245.66 1507.43 3299.4 1478.31 3299.4 1478.31 3247.9 1402.7 3247.9 1402.7 3225.51"/>
  <polygon points="981.44 3650.94 1139.59 3650.94 1139.59 3741.29 1102.61 3741.29 1102.61 3718.79 981.44 3718.79 981.44 3650.94"/>
  <polygon points="1205.69 4093.17 1225.42 4093.17 1225.42 4064.06 1251.25 4064.06 1251.25 4145.12 1205.69 4145.12 1205.69 4093.17"/>
  <polygon points="1437.23 4113.77 1474.8 4113.77 1474.8 4089.59 1521.77 4089.59 1521.77 4100.79 1550.89 4100.79 1550.89 4170.65 1468.23 4170.65 1468.23 4145.12 1437.23 4145.12 1437.23 4113.77"/>
  <rect x="1305.6" y="2988.49" width="93.69" height="47.69"/>
  <rect x="1217.79" y="2924.36" width="70.23" height="35.74"/>
  <rect x="1044.84" y="3297.61" width="106.38" height="56.43"/>
  <rect x="959.6" y="3455.47" width="129.62" height="67.85"/>
  <rect x="979.32" y="3552.2" width="88.76" height="65.16"/>
  <rect x="1267.45" y="3564.96" width="61.99" height="59.11"/>
  <rect x="1480.91" y="3552.2" width="104.26" height="57.1"/>
  <rect x="1267.45" y="3648.26" width="61.99" height="36.95"/>
  <rect x="1270.98" y="3763.12" width="64.81" height="61.8"/>
  <rect x="1448.5" y="3672.44" width="94.4" height="100.76"/>
  <rect x="1437.23" y="3865.9" width="95.81" height="77.92"/>
  <rect x="979.32" y="3841.05" width="126.1" height="60.46"/>
  <rect x="1106.48" y="3841.05" width="80.66" height="76.91"/>
  <rect x="1187.14" y="3841.05" width="64.11" height="44.33"/>
  <polygon points="1029.83 4355.94 1162.25 4355.94 1162.25 4406.31 1128.94 4406.31 1128.94 4428.59 1063.98 4428.59 1063.98 4406.31 1029.83 4406.31 1029.83 4355.94"/>
  <polygon points="1122.17 4569 1040.8 4569 1040.8 4516.19 1095.75 4516.19 1095.75 4502.44 1122.17 4502.44 1122.17 4569"/>
  <polygon points="1019.92 4969.66 1194.8 4969.66 1194.8 5025.38 1069.33 5025.38 1069.33 5004.13 1019.92 5004.13 1019.92 4969.66"/>
  <polygon points="1468.82 4992.43 1568.86 4992.43 1568.86 5038.11 1497.71 5038.11 1497.71 5015.43 1468.82 5015.43 1468.82 4992.43"/>
  <polygon points="1409.52 4352.79 1543.84 4352.79 1543.84 4405.37 1500.63 4405.37 1500.63 4421.58 1409.52 4421.58 1409.52 4352.79"/>
  <rect x="1241.87" y="4329.66" width="41.79" height="46.64"/>
  <rect x="1352.95" y="4329.66" width="47.43" height="37.68"/>
  <rect x="1317.93" y="4582.2" width="44.38" height="53.24"/>
  <rect x="1241.87" y="4979.71" width="44.38" height="53.24"/>
  <rect x="1299.34" y="5270.71" width="31.21" height="64.1"/>
  <rect x="1345.87" y="5367.33" width="24.32" height="82.23" transform="translate(6766.47 4050.42) rotate(90)"/>
  <rect x="1334.12" y="5439.31" width="24.32" height="82.23" transform="translate(6826.7 4134.15) rotate(90)"/>
  <rect x="1332.29" y="4401.97" width="44.38" height="53.24"/>
  <rect x="1061.04" y="4595.72" width="85.24" height="66.44"/>
  <rect x="1035.16" y="4703.81" width="101.44" height="44.04"/>
  <rect x="1194.8" y="4735.04" width="78.2" height="35.69"/>
  <rect x="1117.42" y="4533.31" width="52.87" height="35.69"/>
  <rect x="1048.22" y="5072.17" width="133.15" height="55.98"/>
  <rect x="1420.44" y="5348.98" width="133.15" height="38.28"/>
  <rect x="1050.11" y="5154.24" width="81.72" height="51.92"/>
  <rect x="1415.74" y="5092.33" width="121.87" height="26.84"/>
  <rect x="1452.66" y="5058.75" width="121.87" height="26.84"/>
  <rect x="1432.35" y="5157.82" width="134.79" height="22.54"/>
  <rect x="1418.79" y="5183.03" width="94.81" height="22.54"/>
  <rect x="1446.3" y="4914.88" width="145.07" height="32.64"/>
  <rect x="1342.4" y="5184.99" width="66.92" height="33.85"/>
  <rect x="1354.59" y="5164.46" width="42.56" height="43.43" transform="translate(6562.04 3810.31) rotate(90)"/>
  <rect x="1209.66" y="5348.98" width="74.93" height="38.28"/>
  <rect x="1316.69" y="5077.21" width="59.18" height="30.23"/>
  <rect x="1433.29" y="5528.85" width="80.31" height="138.02"/>
  <polygon points="1019.92 5247.4 1209.66 5247.4 1209.66 5292.37 1161.75 5292.37 1161.75 5317.87 1019.92 5317.87 1019.92 5247.4"/>
  <polygon points="1160.93 1741.49 1259.08 1741.49 1259.08 1916.79 1245.46 1916.79 1245.46 1948.12 1194.27 1948.12 1194.27 1917.4 1160.93 1917.4 1160.93 1741.49"/>
  <rect x="1014.44" y="1251" width="32.48" height="129.34" transform="translate(-284.99 2346.36) rotate(-90)"/>
  <rect x="1112.51" y="1393.37" width="32.14" height="130.7"/>
  <rect x="1177.86" y="1436.04" width="32.14" height="66.5"/>
  <rect x="1174.78" y="1520" width="76.08" height="69.92" transform="translate(-342.14 2767.78) rotate(-90)"/>
  <rect x="1344.09" y="1516.54" width="80.62" height="69.84" transform="translate(-167.06 2935.86) rotate(-90)"/>
  <rect x="1348.57" y="1746.62" width="80.1" height="69.84" transform="translate(-392.91 3170.16) rotate(-90)"/>
  <rect x="1174.85" y="1647.71" width="70.31" height="102.35" transform="translate(-488.88 2908.89) rotate(-90)"/>
  <rect x="1507.46" y="1645.46" width="37.02" height="69.84" transform="translate(-154.41 3206.35) rotate(-90)"/>
  <rect x="1528.14" y="1801.8" width="80.1" height="69.84" transform="translate(-268.53 3404.91) rotate(-90)"/>
  <rect x="1469.13" y="1779.64" width="124.42" height="69.84" transform="translate(-283.22 3345.89) rotate(-90)"/>
  <rect x="1503.76" y="1691.37" width="118.84" height="59.82" transform="translate(-158.1 3284.47) rotate(-90)"/>
  <rect x="1175.07" y="1365.7" width="73.13" height="67.55" transform="translate(-187.84 2611.11) rotate(-90)"/>
  <rect x="1240.98" y="1393.4" width="49.44" height="35.83" transform="translate(-145.62 2677.02) rotate(-90)"/>
  <polygon points="1587.09 1375.59 1587.09 1437.15 1566.49 1437.15 1566.49 1502.15 1507.07 1502.15 1507.07 1356.95 1566.49 1356.95 1566.49 1375.59 1587.09 1375.59"/>
  <rect x="1529.47" y="1546.87" width="61.56" height="53.67" transform="translate(-13.46 3133.96) rotate(-90)"/>
  <rect x="1463.38" y="2277.33" width="40.56" height="36.49" transform="translate(-811.92 3779.23) rotate(-90)"/>
  <rect x="1258.51" y="2481.17" width="40.56" height="23.12" transform="translate(-1213.94 3771.52) rotate(-90)"/>
  <rect x="1459.31" y="2117.21" width="36.74" height="36.49" transform="translate(-657.77 3613.14) rotate(-90)"/>
  <rect x="1357.98" y="2139.6" width="70.67" height="36.49" transform="translate(-764.53 3551.17) rotate(-90)"/>
  <rect x="1409.18" y="2217.02" width="55.03" height="31.17"/>
  <rect x="1740.88" y="2210.77" width="47.72" height="159.44"/>
  <rect x="1802.45" y="2295.58" width="53.54" height="82.07"/>
  <rect x="1852.07" y="2117.26" width="43.68" height="58.62"/>
  <rect x="2297.7" y="2100.33" width="76.79" height="153.19"/>
  <rect x="2297.7" y="2265.09" width="88.76" height="30.48"/>
  <rect x="2297.7" y="2295.58" width="62.7" height="29.7"/>
  <rect x="2297.7" y="2325.28" width="62.7" height="64.35"/>
  <polygon points="1816.85 2144.07 1895.75 2144.07 1895.75 2213.63 1877.43 2213.63 1877.43 2304.29 1816.85 2304.29 1816.85 2144.07"/>
  <polygon points="1921.34 2141.21 1943.89 2141.21 1943.89 2182.9 1966.43 2182.9 1966.43 2280.33 1921.34 2280.33 1921.34 2141.21"/>
  <polygon points="2091.91 2237.22 2147.8 2237.22 2147.8 2167.92 2231.87 2167.92 2231.87 2387.28 2147.8 2387.28 2147.8 2345.6 2091.91 2345.6 2091.91 2237.22"/>
  <polygon points="1795.17 2485.62 1834.15 2485.62 1834.15 2494.48 1852.23 2494.48 1852.23 2529.39 1886.75 2529.39 1886.75 2597.91 1795.17 2597.91 1795.17 2485.62"/>
  <polygon points="1921.34 2503.37 1943.89 2503.37 1943.89 2445.28 2002.12 2445.28 2002.12 2588.82 1921.34 2588.82 1921.34 2503.37"/>
  <polygon points="2089.54 2617.78 2105.72 2617.78 2105.72 2479.01 2151.7 2479.01 2151.7 2510.97 2177.7 2510.97 2177.7 2615.15 2139.01 2615.15 2139.01 2667.8 2089.54 2667.8 2089.54 2617.78"/>
  <polygon points="2199.77 2455.12 2199.77 2590.34 2244.16 2590.34 2244.16 2640.36 2281.14 2640.36 2281.14 2593.85 2262.12 2593.85 2262.12 2457.08 2199.77 2455.12"/>
  <polygon points="2300.1 2531.41 2384.05 2531.41 2384.05 2619.34 2372.43 2619.34 2372.43 2664.28 2300.1 2664.28 2300.1 2531.41"/>
  <rect x="2303.21" y="2436.29" width="65.75" height="76.07"/>
  <polygon points="1797.92 5530.79 1982.06 5530.79 1982.06 5581.49 1959.31 5581.49 1959.31 5596.97 1861.81 5596.97 1861.81 5577.62 1797.92 5577.62 1797.92 5530.79"/>
  <polyline points="2277.09 5151.2 2277.09 5211.68 2185.56 5211.68 2185.56 5229.01 2093.36 5229.01 2093.36 5168.46 2159.47 5168.46 2159.47 5152.58 2277.09 5152.58"/>
  <polygon points="1848.28 5114.74 1778.35 5114.74 1778.35 5057.32 1905.41 5057.32 1905.41 5131.3 1848.28 5131.3 1848.28 5114.74"/>
  <polygon points="1793.65 4806.97 1793.65 4855.28 1970.12 4855.28 1970.12 4827.02 1936.65 4806.97 1793.65 4806.97"/>
  <polygon points="1847.72 4716.37 1847.72 4745.14 1970.64 4745.14 1970.64 4716.37 1941.12 4716.37 1941.12 4698.29 1869.75 4698.29 1869.75 4716.37 1847.72 4716.37"/>
  <polygon points="1821.32 4637.28 1821.32 4666.05 1912.17 4666.05 1912.17 4637.28 1890.36 4637.28 1890.36 4619.2 1837.6 4619.2 1837.6 4637.28 1821.32 4637.28"/>
  <polygon points="1912.17 4666.05 1912.17 4623.99 1949.86 4623.99 1949.86 4608.22 2028.06 4608.22 2028.06 4666.05 1912.17 4666.05"/>
  <path d="M2159.03,4966.6h147.7v25.97h-16.91v17.23h-85.24v-13.11h-45.56v-30.08Z"/>
  <rect x="1842.81" y="5156.01" width="94.4" height="74.05"/>
  <rect x="1962.17" y="5057.31" width="77.24" height="76.45" transform="translate(7096.32 3094.74) rotate(90)"/>
  <rect x="2062.34" y="5147.84" width="77.38" height="20.63"/>
  <rect x="2073.67" y="4966.6" width="62.23" height="76.24"/>
  <rect x="2109.37" y="4887.11" width="53.07" height="49.51"/>
  <rect x="2138.48" y="4784.08" width="58.82" height="54.88"/>
  <rect x="2066.78" y="4709.78" width="79.16" height="39.37"/>
  <rect x="1970.12" y="4774.72" width="68.57" height="73.61"/>
  <rect x="2112.48" y="4694.49" width="179" height="62.95"/>
  <rect x="2171.95" y="4876.59" width="129.27" height="60.03"/>
  <rect x="2149.77" y="4588.02" width="154.04" height="75.58"/>
  <rect x="1906.06" y="4498.24" width="129.15" height="69.67"/>
  <rect x="1860.46" y="4403.46" width="129.15" height="69.67"/>
  <rect x="1906.06" y="4427.66" width="122" height="45.47"/>
  <polygon points="1757.6 4134.37 1913.99 4134.37 1913.99 4163.03 1868.91 4163.03 1868.91 4195.72 1789.54 4195.72 1789.54 4164.82 1757.6 4164.82 1757.6 4134.37"/>
  <polygon points="1783.43 4079.29 1783.43 4121.16 1913.99 4121.16 1913.99 4094.07 1864.68 4094.07 1864.68 4079.29 1783.43 4079.29"/>
  <polygon points="1749.15 3802.53 1749.15 3886.28 1867.5 3886.28 1867.5 3793.13 1839.79 3793.13 1839.79 3763.57 1774.51 3763.57 1774.51 3802.53 1749.15 3802.53"/>
  <polygon points="1759.01 3591.61 1759.01 3614 1863.27 3614 1863.27 3571.9 1783.9 3571.9 1783.9 3591.61 1759.01 3591.61"/>
  <polygon points="1895.68 3558.91 1895.68 3582.87 1929.26 3582.87 1929.26 3594.52 1976.69 3594.52 1976.69 3558.91 1895.68 3558.91"/>
  <polygon points="1854.82 3464.87 1915.17 3464.87 1915.17 3472.93 1973.17 3472.93 1973.17 3518.83 1854.82 3518.83 1854.82 3464.87"/>
  <polygon points="1741.87 3286.19 1852.47 3286.19 1852.47 3304.77 1898.26 3304.77 1898.26 3335.22 1741.87 3335.22 1741.87 3286.19"/>
  <polygon points="2055 3554.88 2159.62 3554.88 2159.62 3597.2 2295.58 3597.2 2295.58 3623.07 2164.55 3623.07 2164.55 3614 2055 3614 2055 3554.88"/>
  <polygon points="2145.18 3455.47 2145.18 3490.4 2182.16 3490.4 2182.16 3510.55 2273.39 3510.55 2273.39 3455.47 2145.18 3455.47"/>
  <polygon points="2299.45 3333.69 2174.03 3364.91 2177.32 3376.94 2220.64 3366.34 2228.51 3393.24 2310.61 3372.62 2299.45 3333.69"/>
  <polygon points="2051.48 2994.65 2134.61 2994.65 2134.61 3033.61 2144.47 3033.61 2144.47 3054.77 2051.48 3054.77 2051.48 2994.65"/>
  <polygon points="2072.03 3865.9 2159.62 3865.9 2159.62 3879.56 2175.12 3879.56 2175.12 3918.74 2072.03 3918.74 2072.03 3865.9"/>
  <polygon points="2204.71 3844.18 2204.71 3924.57 2334.09 3924.57 2334.09 3877.1 2277.74 3877.1 2277.74 3844.18 2204.71 3844.18"/>
  <rect x="1951.8" y="4147.36" width="54.95" height="60.46"/>
  <rect x="2044.79" y="4058.02" width="32.41" height="100.76"/>
  <rect x="2111.71" y="4054.66" width="112.72" height="66.5"/>
  <rect x="2219.5" y="3974.72" width="90.17" height="47.02"/>
  <rect x="2048.31" y="3943.82" width="69.04" height="54.41"/>
  <rect x="1760.18" y="3988.83" width="149.35" height="32.92"/>
  <rect x="2159.62" y="3651.61" width="135.96" height="22.84"/>
  <rect x="2044.09" y="3488.38" width="52.84" height="44.33"/>
  <rect x="2159.15" y="3262" width="54.01" height="64.49"/>
  <rect x="2114.53" y="3069.44" width="54.48" height="74.79"/>
  <rect x="1718.62" y="3170.98" width="149" height="64.15"/>
  <rect x="1731.83" y="3074.59" width="126.68" height="55.75"/>
  <rect x="1900.77" y="2925.98" width="118.35" height="71.2"/>
  <rect x="1783.52" y="2836.46" width="130.85" height="39.02"/>
  <rect x="2060.29" y="2816.64" width="76.79" height="47.69"/>
  <rect x="2049.72" y="2883.81" width="92.05" height="72.55"/>
  <rect x="2199.77" y="2803.2" width="113.42" height="66.5"/>
  <rect x="1942.21" y="5258.65" width="94.81" height="22.54"/>
  <rect x="1697.92" y="1760.24" width="145.44" height="69.84" transform="translate(-24.52 3565.81) rotate(-90)"/>
  <rect x="1789.13" y="1769.13" width="145.44" height="69.84" transform="translate(57.8 3665.9) rotate(-90)"/>
  <rect x="2038.39" y="1749.83" width="170.14" height="69.84" transform="translate(338.71 3908.21) rotate(-90)"/>
  <rect x="2155.55" y="1737.48" width="145.44" height="69.84" transform="translate(455.88 4000.67) rotate(-90)"/>
  <rect x="2286.3" y="1804.85" width="103.98" height="69.84" transform="translate(498.52 4178.06) rotate(-90)"/>
  <rect x="1826.93" y="1348.36" width="59.42" height="145.2"/>
  <rect x="2247.16" y="1348.36" width="46.18" height="145.2"/>
  <rect x="2016.17" y="1348.36" width="46.18" height="145.2"/>
  <rect x="1842.19" y="1363.8" width="61.56" height="67.96" transform="translate(475.19 3270.75) rotate(-90)"/>
  <rect x="1823.44" y="1510.8" width="67.21" height="58.6" transform="translate(316.95 3397.15) rotate(-90)"/>
  <rect x="2145.19" y="1516.95" width="86.58" height="68.07" transform="translate(637.5 3739.47) rotate(-90)"/>
  <rect x="2198.9" y="1529.98" width="60.51" height="68.07" transform="translate(665.14 3793.17) rotate(-90)"/>
  <rect x="1699.78" y="1473.8" width="121.55" height="78.27" transform="translate(247.62 3273.49) rotate(-90)"/>
</svg>