<?xml version="1.0" encoding="UTF-8"?>
<svg id="roads" xmlns="http://www.w3.org/2000/svg" viewBox="0 0 7967.36 6847.15">
  <rect x="6902.33" y="1230.65" width="67.27" height="4556.77"/>
  <rect x="1635.86" y="1230.65" width="67.27" height="4556.77"/>
  <rect x="883.66" y="1230.65" width="67.27" height="4556.77"/>
  <rect x="3893" y="-1778.68" width="67.27" height="6085.94" transform="translate(5190.92 -2662.35) rotate(90)"/>
  <rect x="3893" y="-1023.65" width="67.27" height="6085.94" transform="translate(5945.95 -1907.31) rotate(90)"/>
  <rect x="3893" y="-292.38" width="67.27" height="6085.94" transform="translate(6677.21 -1176.05) rotate(90)"/>
  <rect x="3893" y="1225.33" width="67.27" height="6085.94" transform="translate(8194.92 341.66) rotate(90)"/>
  <rect x="3893" y="2710.82" width="67.27" height="6085.94" transform="translate(9680.42 1827.16) rotate(90)"/>
  <rect x="2388.07" y="1230.65" width="67.27" height="4556.77"/>
  <rect x="3140.27" y="1230.65" width="67.27" height="4556.77"/>
  <rect x="3892.47" y="1230.65" width="67.27" height="4556.77"/>
  <rect x="4644.12" y="1230.65" width="67.27" height="4556.77"/>
  <rect x="5397.6" y="1230.65" width="67.27" height="4556.77"/>
  <rect x="6148.98" y="1230.65" width="67.27" height="4556.77"/>
</svg>